<svg width="3534" height="3170" viewBox="0 0 3534 3170" fill="none" xmlns="http://www.w3.org/2000/svg">
<path fill-rule="evenodd" clip-rule="evenodd" d="M1803.07 0.890625C1780.93 0.890625 1760.37 5.63585 1741.39 11.9625C1781.72 38.8511 1803.86 74.4394 1814.94 114.772C1815.73 120.308 1817.31 124.263 1818.1 129.798C1818.89 134.543 1819.68 139.288 1819.68 144.034C1822.85 213.628 1801.49 222.327 1786.47 263.451C1763.53 316.438 1769.86 373.379 1797.54 419.248C1799.91 424.783 1803.07 431.11 1807.03 436.646C1776.98 236.562 1943.84 206.51 1974.68 144.034C1977.05 89.4653 1931.98 53.0864 1896.39 27.7793C1862.38 7.21742 1831.54 0.890625 1803.07 0.890625ZM2054.55 45.9688C2051.39 64.1582 2053.76 59.4131 2052.97 68.9033C2052.18 75.23 2052.18 83.1386 2051.39 89.4652C2049.81 95.792 2048.23 102.119 2045.86 108.446C2044.28 114.772 2041.9 121.099 2039.53 127.426C2036.37 133.753 2034 139.288 2030.83 145.615C2028.46 148.78 2026.88 151.942 2024.51 155.105C2022.93 157.478 2021.34 159.851 2019.76 162.223C2015.81 167.759 2011.85 173.295 2007.9 178.04C2003.15 182.785 1999.2 188.321 1993.66 192.275V193.067C1988.92 197.021 1984.17 201.766 1978.64 205.721C1962.03 218.374 1943.05 227.864 1925.65 239.727C1920.12 243.681 1914.58 246.845 1909.84 251.59C1904.3 255.544 1899.56 259.498 1894.81 264.243C1889.27 268.988 1885.32 273.733 1880.58 279.269C1876.62 284.014 1871.88 289.55 1868.71 295.086C1864.76 300.622 1860.81 306.158 1857.64 311.694C1854.48 318.02 1852.11 323.556 1848.94 329.883C1846.57 336.21 1844.2 341.746 1842.62 348.072C1840.24 355.19 1838.66 361.517 1837.08 367.844C1836.29 371.009 1836.29 374.961 1835.5 378.125C1834.71 381.289 1834.71 384.451 1833.92 387.615C1833.92 393.942 1833.13 401.059 1833.13 407.386C1833.13 412.131 1833.13 416.876 1833.92 421.621C1833.92 427.948 1834.71 434.275 1836.29 441.392C1837.08 447.719 1838.66 454.046 1840.25 460.373C1842.62 466.699 1844.2 473.026 1846.57 479.353C1848.15 483.307 1850.53 487.261 1852.11 490.424L1670.22 420.039C1639.38 411.34 1609.33 403.432 1578.48 396.314C1561.88 392.36 1545.27 388.406 1528.66 384.451C1481.21 374.961 1432.97 367.844 1384.73 363.099C1383.15 363.099 1382.36 362.307 1380.78 362.307C1333.33 357.562 1286.67 355.189 1239.22 355.189C1204.43 355.189 1169.63 356.77 1135.62 359.143C1087.38 362.308 1039.14 368.634 990.904 376.542C979.042 378.122 967.179 380.496 955.317 382.869C930.801 387.614 907.077 393.15 884.143 398.686C872.281 401.85 860.418 405.013 848.556 408.176C836.694 412.921 825.622 418.457 814.551 423.202C805.852 427.156 797.153 431.11 788.454 435.065C786.873 435.857 785.289 435.857 784.5 436.645C776.591 440.599 769.474 443.762 762.357 447.717C759.984 448.509 758.402 449.297 756.821 450.09C748.122 454.044 739.423 458.789 732.305 462.743C726.77 465.115 721.234 468.279 716.489 470.652C714.117 472.232 710.953 473.816 709.372 474.606C702.254 478.56 695.137 482.514 688.81 486.468C681.693 490.423 675.366 494.377 669.83 498.331C664.295 502.285 658.759 505.448 654.014 509.403C653.222 510.194 652.433 510.195 651.641 510.983C646.896 514.148 641.361 518.101 636.616 522.055C636.616 522.055 635.824 522.847 635.036 523.636C631.082 526.8 627.127 529.962 623.173 533.125C621.593 533.917 620.009 535.498 618.428 536.29C614.474 539.455 610.52 543.408 606.566 546.571C605.774 548.152 604.194 548.944 603.402 549.736C598.657 554.481 593.912 558.435 589.167 563.18C588.375 563.18 588.375 563.972 587.586 564.761C582.841 568.715 578.096 573.46 573.351 578.205C572.559 578.997 572.559 579.785 571.771 579.785C567.817 583.74 563.863 587.694 559.909 592.439C558.328 594.019 555.955 595.604 554.373 597.184C550.419 601.929 545.674 606.674 540.929 611.419C540.137 613 538.557 613.792 537.765 615.373C531.438 621.7 525.902 628.027 519.576 634.354C518.783 635.146 517.995 635.934 517.203 636.726C504.55 650.171 491.106 663.615 476.871 675.478C462.636 688.131 447.611 699.994 432.585 710.275C416.769 721.347 401.743 730.837 385.136 740.327C369.319 749.026 352.712 756.935 335.314 764.052C318.707 771.17 301.309 777.497 283.911 783.032C250.696 790.15 216.691 803.594 187.43 805.967C181.104 805.967 173.986 807.548 167.66 808.339C160.543 809.92 154.216 811.504 147.89 813.085C141.563 815.457 135.236 817.83 128.91 820.202C122.583 822.575 116.257 825.738 109.93 828.902C104.394 832.856 98.0678 836.019 92.5319 839.973C86.9963 843.927 81.4604 848.672 76.7154 853.418C71.1799 857.372 65.644 862.908 60.899 867.653C56.1541 873.189 51.4091 877.934 47.4551 883.47C43.5011 889.796 38.7561 895.333 35.5927 901.659C31.6387 907.195 27.6847 913.522 24.5212 919.848C21.3567 926.966 18.1947 933.293 15.8222 940.411C13.4497 946.737 11.0773 953.855 8.70479 960.973C7.12438 967.299 5.54025 973.626 4.75079 979.952C4.75079 980.746 3.95874 981.533 3.95874 982.325C2.37833 989.443 2.37832 998.933 1.58625 1003.68C0.794214 1009.21 0.00585938 1013.96 0.00585938 1019.5C0.00585938 1022.66 0.00586184 1026.61 0.7979 1029.78C1.58994 1035.31 2.37829 1040.06 3.96244 1044.8C5.54285 1049.55 7.12699 1054.29 9.49799 1059.04V1059.83C11.8705 1064.57 15.0339 1069.32 18.197 1074.06C21.3615 1078.81 24.5238 1083.56 28.4778 1088.3C32.4319 1092.25 37.1768 1097 41.9218 1100.95C46.6667 1105.7 51.4117 1109.65 56.9472 1113.61C75.9271 1130.21 80.6721 1135.75 105.188 1148.4C109.141 1150.78 113.096 1152.36 117.841 1154.73C118.633 1154.73 119.421 1155.52 120.213 1155.52C120.213 1157.1 120.213 1157.9 121.005 1159.48C121.798 1165.8 123.378 1172.13 124.96 1178.46C126.54 1185.58 128.914 1191.9 131.286 1197.44C133.659 1202.18 135.24 1206.93 137.613 1211.67C138.405 1213.25 139.193 1214.84 139.985 1215.63C143.15 1221.95 146.312 1227.49 149.475 1233.03C153.429 1238.56 157.383 1244.1 161.337 1249.63C165.291 1254.38 170.036 1259.91 174.781 1264.66C179.526 1269.4 184.271 1273.36 189.807 1278.1C189.807 1278.1 190.599 1278.9 191.388 1278.9C196.132 1282.85 200.877 1286.81 205.622 1289.97C211.158 1293.92 216.694 1297.09 223.02 1300.25C228.556 1303.41 234.883 1306.58 241.209 1308.95C245.954 1311.32 251.49 1312.9 257.026 1314.48C257.818 1315.28 258.606 1315.28 260.19 1316.07C263.355 1316.86 267.307 1317.65 270.471 1318.44C268.098 1361.14 267.306 1401.48 273.635 1415.71C280.752 1431.53 315.549 1383.29 350.345 1327.93C345.6 1382.5 342.437 1446.55 350.345 1465.54C359.044 1485.31 406.493 1423.62 447.616 1355.61C1008.31 1225.91 1519.97 1613.42 1573.75 2160.69C1563.47 2075.28 1458.29 2027.83 1410.05 2039.69C1386.32 2098.21 1345.99 2173.34 1281.14 2220C1286.68 2167.81 1284.31 2114.03 1273.23 2061.83C1255.84 2134.59 1221.83 2202.6 1175.17 2261.13C1100.04 2266.66 1024.92 2230.28 985.374 2175.71C982.21 2173.34 981.42 2168.6 979.048 2165.43C976.675 2159.9 974.303 2154.36 972.721 2148.82C970.349 2143.29 968.767 2137.75 967.976 2132.22C967.184 2126.68 967.184 2121.15 967.184 2114.82C967.184 2110.86 967.184 2106.91 967.184 2102.96C967.976 2097.42 969.557 2091.88 971.138 2086.35C972.719 2080.81 974.303 2075.28 976.674 2069.74C979.839 2064.2 982.21 2058.67 986.164 2053.13C999.608 2015.17 999.608 1984.33 975.092 1966.14C970.348 1962.98 965.603 1960.6 960.067 1958.23C956.902 1957.44 952.949 1955.86 949.786 1955.07C947.414 1954.27 945.832 1953.49 943.46 1952.69C937.924 1951.11 932.388 1949.53 926.852 1948.74C921.316 1947.16 915.781 1946.37 910.245 1946.37C904.709 1945.57 898.383 1944.79 892.847 1944.79C888.893 1944.79 884.939 1945.58 880.985 1945.58C874.658 1945.58 869.122 1946.37 863.587 1947.95C858.051 1948.74 852.515 1949.53 846.979 1951.12C841.444 1952.7 835.908 1954.28 830.372 1956.65C824.836 1959.02 820.091 1961.4 814.555 1963.77C809.811 1966.14 805.066 1969.31 799.53 1971.68C615.268 2091.89 725.193 2373.43 850.933 2454.88C803.484 2463.58 755.244 2473.86 741.8 2484.15C741.008 2484.94 740.22 2485.73 740.22 2485.73C774.225 2506.29 809.812 2523.69 846.98 2538.71C897.593 2555.32 951.369 2570.35 975.094 2576.67V2577.46C1040.73 2590.91 1107.16 2595.65 1174.38 2591.7C1524.71 2567.18 1811.78 2300.67 1863.98 1949.53C1865.56 1956.65 1867.14 1962.98 1868.72 1970.1C1871.09 1984.33 1874.26 1999.36 1875.84 2014.38V2015.18C1877.42 2022.29 1878.21 2029.41 1879 2035.74V2038.9C1879.8 2046.02 1880.58 2053.14 1880.58 2059.46C1881.38 2068.16 1882.16 2076.86 1882.16 2085.56V2098.22C1882.16 2102.17 1882.96 2106.92 1882.96 2110.87C1882.96 2115.61 1882.16 2120.36 1882.16 2125.1V2136.18C1882.16 2141.71 1881.37 2146.46 1881.37 2151.99C1881.37 2155.16 1881.37 2158.32 1880.58 2162.27C1880.58 2167.81 1879.79 2173.35 1879.79 2179.67C1879 2182.05 1879 2184.42 1879 2186.79C1878.2 2193.12 1877.41 2198.65 1876.62 2204.98C1876.62 2207.35 1876.62 2209.73 1875.83 2212.1C1875.04 2220.01 1873.46 2227.12 1872.67 2235.03V2235.83V2236.62C1871.09 2243.73 1869.5 2251.64 1867.92 2258.76V2261.13C1866.34 2268.25 1864.76 2275.37 1863.18 2282.49C1863.18 2283.28 1862.38 2284.86 1862.38 2285.65C1860.8 2292.77 1859.22 2299.89 1856.85 2307V2309.38C1854.48 2317.28 1852.1 2324.4 1850.52 2331.52C1849.73 2332.31 1849.73 2333.1 1849.73 2333.1C1847.36 2341.01 1844.99 2348.92 1842.61 2356.83C1839.45 2364.73 1837.08 2371.85 1833.91 2379.76C1830.75 2387.67 1828.38 2395.58 1825.22 2402.69C1822.05 2410.6 1818.89 2417.72 1815.73 2425.63H1814.93C1811.77 2432.75 1808.61 2440.66 1804.65 2447.77C1803.86 2450.15 1803.07 2451.73 1802.28 2453.31C1801.49 2454.1 1801.49 2454.89 1800.7 2455.68C1749.3 2559.28 1673.38 2650.23 1578.48 2721.4C1572.15 2725.36 1565.82 2730.1 1559.5 2734.85C1557.92 2736.43 1555.54 2737.22 1553.96 2738.8C1548.43 2742.76 1542.89 2746.71 1536.56 2750.67L1538.94 2755.41H1539.73C1550.8 2753.83 1561.87 2752.25 1572.94 2750.67H1573.74C1594.3 2747.5 1614.86 2743.55 1635.42 2739.59C1640.95 2738.8 1647.28 2737.22 1652.82 2735.64C1656.77 2734.85 1659.93 2734.06 1663.89 2733.27C1669.42 2732.47 1674.96 2730.89 1680.5 2730.1C1685.24 2728.52 1689.99 2727.73 1694.73 2726.15C1773.81 2707.17 1850.52 2681.07 1924.07 2650.23C1798.33 2821.84 1629.88 2960.24 1432.97 3051.19C1523.91 3044.86 1614.86 3029.83 1702.64 3004.53C2021.34 2910.41 2289.43 2696.1 2449.97 2407.44C2417.54 2590.12 2344.79 2764.11 2237.23 2915.95C2313.94 2865.34 2384.33 2806.81 2448.38 2740.38C2625.53 2555.33 2741.78 2320.45 2781.32 2068.17C2808.21 2193.12 2816.12 2322.03 2804.25 2449.35C3375.23 1652.97 2851.7 827.33 2632.65 609.848C2631.85 608.268 2631.06 607.475 2631.06 605.894C2630.27 606.686 2630.27 606.686 2630.27 607.474C2630.27 606.682 2630.27 606.682 2629.48 605.894C2629.48 615.384 2628.69 624.874 2627.9 634.364C2625.53 652.554 2623.15 669.952 2619.99 687.351C2616.04 704.749 2611.29 722.148 2606.55 739.546C2601.01 756.154 2594.69 773.553 2587.57 790.16C2580.45 805.977 2572.54 822.585 2563.84 838.402C2555.14 853.428 2545.65 869.245 2535.37 883.48C2525.09 898.506 2514.02 912.741 2502.95 926.185C2491.09 940.421 2478.43 953.075 2465.78 965.728C2457.87 972.846 2450.76 979.172 2442.85 985.499C2436.52 991.035 2430.98 995.78 2424.66 1001.32C2410.42 1012.39 2396.19 1022.67 2380.37 1032.16C2365.35 1041.65 2349.53 1051.14 2333.71 1059.05C2317.11 1066.96 2300.5 1074.07 2283.89 1081.19C2267.28 1087.52 2249.89 1093.05 2232.49 1097.8C2215.09 1102.54 2196.9 1106.5 2179.5 1109.66C2161.31 1112.83 2143.13 1114.41 2125.73 1115.99C2113.07 1116.78 2100.42 1117.57 2087.77 1117.57C2069.58 1117.57 2051.39 1115.99 2033.99 1114.4C2015.8 1112.82 1997.61 1110.45 1980.22 1106.5C1962.03 1103.33 1944.63 1098.59 1927.23 1093.05H1926.44C1943.84 1091.47 1961.24 1089.89 1978.63 1086.72C1996.82 1083.56 2014.22 1079.61 2031.62 1074.86C2049.02 1070.12 2066.42 1064.58 2083.02 1058.25C2100.42 1051.93 2117.03 1044.02 2132.84 1036.11C2149.45 1028.2 2164.48 1019.5 2180.29 1010.01C2195.32 999.732 2210.34 989.451 2224.58 978.379C2238.81 967.307 2252.26 955.445 2264.91 942.791C2278.36 930.928 2290.22 917.484 2302.08 904.039C2313.94 889.805 2325.01 875.569 2335.29 861.334C2336.88 858.961 2338.46 855.798 2340.04 853.426C2347.95 840.772 2355.86 828.119 2362.97 815.465C2371.67 799.648 2379.58 783.831 2386.7 767.224C2393.82 750.616 2400.14 734.008 2405.68 716.609C2411.21 700.001 2415.17 682.603 2419.12 665.205C2422.29 647.015 2425.45 629.616 2427.03 612.218C2428.61 594.029 2430.19 575.839 2430.19 558.441C2430.19 545.787 2429.4 533.133 2428.61 520.48C2427.03 502.291 2424.66 484.892 2422.29 467.493C2419.12 449.304 2415.17 431.906 2410.42 414.507C2404.89 397.899 2399.35 380.5 2393.03 363.893C2386.7 347.285 2378.79 330.677 2370.88 314.86C2362.18 299.043 2353.49 283.226 2344 268.201C2333.72 253.175 2323.43 238.939 2312.36 224.704C2300.5 211.26 2288.64 197.815 2275.99 184.371C2269.66 178.044 2262.54 170.927 2255.42 164.6C2219.84 136.92 2182.67 110.822 2145.5 87.0971C2139.96 83.9326 2135.22 81.5611 2129.68 79.1885C2103.59 62.581 2079.07 53.877 2054.55 45.9688Z" fill="#E0234E"/>
<path fill-rule="evenodd" clip-rule="evenodd" d="M3159.09 2389.06C2820.75 2706.58 2299.38 2915.48 1836.33 2970.14C1187.4 3046.74 574.358 2875.79 85.6459 2529.09C46.997 2501.67 73.4891 2455.13 118.1 2475C628.501 2695.76 1237.54 2794.08 1847.04 2722.13C2258.26 2673.6 2699.93 2534.65 3094.91 2309.82C3153.55 2274.34 3214.61 2336.82 3159.09 2389.06Z" fill="#FF9900"/>
<path fill-rule="evenodd" clip-rule="evenodd" d="M3292.69 2195.09C3238.19 2139.83 2976.03 2202.76 2857.21 2231.64C2821.69 2240.4 2812.34 2209.52 2842.22 2182C3036.47 2008.29 3389.65 2010.01 3436.06 2054.79C3482.6 2100.7 3471.87 2454.95 3293.26 2645.09C3265.9 2674.6 3235.01 2664.53 3244.54 2629.14C3276.44 2512.28 3347.06 2249.21 3292.69 2195.09Z" fill="#FF9900"/>
<path fill-rule="evenodd" clip-rule="evenodd" d="M2327.01 2589.12L1894.07 2689.53C1772.05 2843.01 1614.62 2967.29 1432.97 3051.19C1523.91 3044.86 1614.86 3029.83 1702.64 3004.53C1950.2 2931.42 2167.22 2785.79 2327.01 2589.12Z" fill="#E0234E"/>
</svg>
